<?xml version="1.0" encoding="UTF-8"?><svg id="a" xmlns="http://www.w3.org/2000/svg" viewBox="0 0 207.14 44.91"><defs><style>.b{fill:#fff;}</style></defs><path class="b" d="M0,34.98H44.76v8.9H0v-8.9ZM31.51,10.04H2.54V1.14H42.22V30.58h-10.71V10.04Z"/><path class="b" d="M61.41,4.71c0,.83-.05,1.55-.05,2.23-.05,.72-.1,1.45-.16,2.07l3.62,2.69c.1-.93,.21-2.02,.31-3.16,0-1.14,.05-2.43,.05-3.88V0h9.16V4.71c0,3.67-.31,6.78-.93,9.37l5.8,3.62-5.49,6.93-4.04-3.1c-.93,.93-1.91,1.76-3,2.48-1.14,.72-2.43,1.4-3.88,1.97l-4.04-5.38c1.24-.62,2.23-1.29,3-1.97l-2.69-2.02c-.83,1.55-1.91,2.95-3.16,4.09-1.29,1.24-2.85,2.33-4.66,3.31l-5.02-6.47c1.09-.52,2.02-1.14,2.79-1.81,.72-.62,1.35-1.4,1.86-2.38,.47-.93,.83-2.12,1.04-3.52,.21-1.35,.31-3.1,.31-5.17V0h9.16V4.71Zm39.48,22.35v17.85H51.52V27.06h49.36Zm-38.65,7.3v3.26h27.94v-3.26h-27.94Zm17.59-9.11V.1h9.26V6.99l2.48-.88V.1h9.31V25.25h-9.31V15.88l-2.48,.88v8.49h-9.26Z"/><path class="b" d="M149.81,43.88h-10.71V25.51l-4.66,1.55c-.36,3.21-.98,5.9-1.92,8.02-.98,2.17-2.12,3.88-3.47,5.23-1.34,1.24-2.79,2.17-4.35,2.74-1.6,.52-3.21,.83-4.76,.83-1.81,0-3.57-.36-5.33-1.03-1.76-.72-3.36-1.86-4.71-3.52-1.45-1.66-2.59-3.88-3.42-6.67-.88-2.74-1.29-6.21-1.29-10.4s.41-7.66,1.29-10.45c.83-2.74,1.97-4.97,3.42-6.62,1.35-1.66,2.95-2.79,4.71-3.52,1.76-.67,3.52-1.04,5.33-1.04,1.55,0,3.1,.31,4.71,.83,1.55,.57,3.05,1.5,4.4,2.74,1.29,1.35,2.43,3.05,3.42,5.12,.93,2.17,1.6,4.81,1.97,7.97l4.66-1.55V.1h10.71V43.88Zm-33.94-21.63c0,2.69,.1,4.81,.36,6.47,.21,1.66,.52,2.95,.93,3.88,.36,.93,.83,1.55,1.35,1.86,.46,.36,.93,.52,1.45,.52,.41,0,.88-.16,1.4-.52,.47-.31,.93-.93,1.34-1.86,.36-.88,.67-2.17,.93-3.88,.21-1.66,.36-3.83,.36-6.52s-.16-4.81-.36-6.47c-.26-1.66-.57-2.95-.93-3.88-.41-.88-.88-1.5-1.34-1.86-.52-.31-.98-.47-1.4-.47-.52,0-.98,.16-1.45,.47-.52,.36-.98,.98-1.35,1.91-.41,.93-.72,2.22-.93,3.88-.26,1.66-.36,3.83-.36,6.47Z"/><path class="b" d="M168.28,3.73V12.62h-3.78v21.84h3.78v8.9h-13.4V3.73h13.4Zm14.75-2.59V10.04h-3.52v24.42h4.04v8.9h-13.66V1.14h13.14Zm2.07,42.74V.1h9.62V16.76l2.74-.93V.1h9.68V43.88h-9.68V25.61l-2.74,.93v17.33h-9.62Z"/></svg>