<?xml version="1.0" encoding="UTF-8"?><svg id="a" xmlns="http://www.w3.org/2000/svg" viewBox="0 0 183.83 40.52"><defs><style>.b{fill:#fff;}</style></defs><path class="b" d="M0,31.72H39.65v7.89H0v-7.89ZM27.91,9.63H2.25V1.74H37.4V27.82h-9.49V9.63Z"/><path class="b" d="M54.3,4.9c0,.73-.04,1.37-.04,1.97-.04,.64-.09,1.28-.14,1.83l3.21,2.38c.09-.82,.18-1.79,.28-2.8,0-1.01,.04-2.16,.04-3.44V.73h8.11V4.9c0,3.25-.28,6.01-.82,8.3l5.13,3.21-4.86,6.14-3.58-2.75c-.82,.82-1.69,1.56-2.66,2.2-1.01,.64-2.15,1.24-3.44,1.74l-3.58-4.77c1.1-.55,1.97-1.15,2.66-1.74l-2.38-1.79c-.74,1.38-1.7,2.61-2.8,3.62-1.15,1.1-2.52,2.06-4.13,2.93l-4.44-5.73c.96-.46,1.79-1.01,2.47-1.6,.64-.55,1.19-1.24,1.65-2.11,.41-.82,.74-1.88,.92-3.12,.18-1.19,.28-2.75,.28-4.59V.73h8.11V4.9Zm34.97,19.8v15.81H45.55v-15.81h43.73Zm-34.24,6.46v2.89h24.75v-2.89h-24.75Zm15.59-8.07V.82h8.2V6.92l2.2-.78V.82h8.25V23.1h-8.25V14.8l-2.2,.78v7.52h-8.2Z"/><path class="b" d="M119.45,1.28v7.38h-8.52c-.04,.23-.04,.41-.04,.59-.05,.19-.09,.37-.09,.55l9.95,3.9-5.13,6.55-8.43-4.22c-1.28,1.19-2.89,2.11-4.77,2.84-1.93,.73-4.08,1.28-6.51,1.6l-4.08-6.92c2.84-.46,5.09-1.01,6.64-1.74,1.52-.69,2.48-1.74,2.89-3.16h-7.79V1.28h25.9Zm2.43,27.23v-1.38h-25.34v-5.31h34.83v12.01h-25.34v1.38h25.8v5.31h-35.29v-12.01h25.34Zm9.49-14.44v6.14h-9.49V.82h9.49V6.19h3.99v7.88h-3.99Z"/><path class="b" d="M154.36,4.03h7.75v7.89h-24.98V4.03h7.74V0h9.49V4.03Zm-4.77,35.57c-1.65,0-3.16-.23-4.54-.69-1.42-.46-2.61-1.19-3.58-2.2-1.01-1.06-1.79-2.38-2.34-4.03-.6-1.6-.87-3.58-.87-5.91s.27-4.26,.87-5.91c.55-1.6,1.33-2.93,2.34-3.99,.96-1.01,2.16-1.74,3.58-2.25,1.38-.46,2.89-.69,4.54-.69s3.16,.23,4.58,.69c1.38,.5,2.57,1.24,3.58,2.25,.96,1.06,1.74,2.38,2.34,3.99,.55,1.65,.82,3.62,.82,5.91s-.28,4.31-.82,5.91c-.6,1.65-1.38,2.98-2.34,4.03-1.01,1.01-2.2,1.74-3.58,2.2-1.42,.46-2.93,.69-4.58,.69Zm0-7.89c.87,0,1.51-.37,1.93-1.19,.37-.74,.55-2.02,.55-3.76s-.18-2.98-.55-3.8c-.41-.74-1.06-1.15-1.93-1.15-.92,0-1.51,.41-1.88,1.15-.41,.82-.6,2.06-.6,3.8s.18,3.02,.6,3.76c.37,.82,.96,1.19,1.88,1.19Zm13.98,7.89V.82h8.89V15.49l2.43-.82V.82h8.94V39.6h-8.94V23.33l-2.43,.82v15.45h-8.89Z"/></svg>