<?xml version="1.0" encoding="UTF-8"?><svg id="a" xmlns="http://www.w3.org/2000/svg" viewBox="0 0 16 16"><defs><style>.b{fill:#fff;}</style></defs><rect class="b" width="16" height="16" rx="3.29" ry="3.29"/><g><path d="M1.49,9.62H7.27v1.15H1.49v-1.15Zm4.07-3.22H1.82v-1.15H6.94v3.8h-1.38v-2.65Z"/><path d="M9.41,5.71c0,.11,0,.2,0,.29,0,.09-.01,.19-.02,.27l.47,.35c.01-.12,.03-.26,.04-.41,0-.15,0-.31,0-.5v-.6h1.18v.61c0,.47-.04,.88-.12,1.21l.75,.47-.71,.9-.52-.4c-.12,.12-.25,.23-.39,.32-.15,.09-.31,.18-.5,.25l-.52-.7c.16-.08,.29-.17,.39-.25l-.35-.26c-.11,.2-.25,.38-.41,.53-.17,.16-.37,.3-.6,.43l-.65-.84c.14-.07,.26-.15,.36-.23,.09-.08,.17-.18,.24-.31,.06-.12,.11-.27,.13-.45,.03-.17,.04-.4,.04-.67v-.6h1.18v.61h0Zm5.1,2.89v2.31h-6.37v-2.31h6.37Zm-4.99,.94v.42h3.61v-.42h-3.61Zm2.27-1.18v-3.25h1.2v.89l.32-.11v-.78h1.2v3.25h-1.2v-1.21l-.32,.11v1.1h-1.2Z"/></g></svg>